<?xml version="1.0" encoding="utf-8"?>
<!-- Generator: Adobe Illustrator 22.1.0, SVG Export Plug-In . SVG Version: 6.00 Build 0)  -->
<svg version="1.1" id="Layer_1" xmlns="http://www.w3.org/2000/svg" xmlns:xlink="http://www.w3.org/1999/xlink" x="0px" y="0px"
	 viewBox="0 0 48 48" style="enable-background:new 0 0 48 48;" xml:space="preserve">
<style type="text/css">
	.st0{fill:#FFFFFF;}
</style>
<path class="st0" d="M24,0C10.7,0,0,10.7,0,24s10.7,24,24,24s24-10.7,24-24S37.3,0,24,0z M37.2,25.2c-4.3,4.3-8.7,8.7-13,13
	c-0.3,0.3-0.4,0.5-0.5,0.5c-0.5,0-1.3-1.1-1.5-1.4c-0.1-0.1-0.1-0.4,0-0.5c4.3-4.3,8.6-8.6,12.9-12.9c1.4-1.4,2.4-2.9,2.5-4.9
	c0.3-3.3-2-6.3-5.2-6.9c-3.8-0.6-6.2,1.9-8.6,4.3c-2.8,2.8-5.5,5.5-8.3,8.3c-1.9,1.9-5.3,4.3-4.8,7.3c0.5,3.5,4.8,4.3,7.1,2
	c0.6-0.6,1.1-1.1,1.8-1.8c2.8-2.8,5.4-5.4,8.2-8.2c1.4-1.4,2.9-2.9,4.3-4.3c1.8-1.8-0.5-4-2.1-2.3c-0.5,0.5-1,1-1.5,1.5
	c-2.1,2.1-7.4,7.4-7.9,7.9c-0.3,0.3-0.9,1.1-1.3,0.8c-0.4-0.4-0.9-0.9-1.3-1.3c-0.1-0.1-0.1-0.4,0-0.5c2-2,8.4-8.7,10.1-10.2
	c1.1-1,2.6-1.6,4-1.3c3.4,0.6,4,4.9,1.8,7.1c-0.6,0.6-1.1,1.1-1.8,1.8c-2.8,2.8-5.4,5.4-8.2,8.2c-1.9,1.9-3.9,4.5-6.3,5.8
	c-3,1.5-6.8,0.5-8.6-2.4c-1.6-2.6-1-6.2,1.1-8.4c4.4-4.4,8.8-8.8,13.2-13.4c0.9-0.9,1.8-1.8,2.8-2.4c2.6-1.6,5.9-1.9,8.8-0.5
	C40.8,12.9,41.6,20.8,37.2,25.2z"/>
</svg>
